<mxfile host="app.diagrams.net" modified="2022-10-12T03:37:02.559Z" agent="5.0 (Windows NT 10.0; WOW64) AppleWebKit/537.36 (KHTML, like Gecko) Chrome/104.0.0.0 Safari/537.36" etag="Jsr-mfgliNe7KnTJkdnD" version="20.4.0" type="github">
  <diagram name="Page-1" id="82e54ff1-d628-8f03-85c4-9753963a91cd">
    <mxGraphModel dx="869" dy="803" grid="1" gridSize="10" guides="1" tooltips="1" connect="1" arrows="1" fold="1" page="1" pageScale="1" pageWidth="1100" pageHeight="850" background="none" math="0" shadow="0">
      <root>
        <mxCell id="0" />
        <mxCell id="1" parent="0" />
        <mxCell id="EORnPQ3Ul3AEAmSr3bNs-17" value="" style="rounded=0;whiteSpace=wrap;html=1;" parent="1" vertex="1">
          <mxGeometry x="80" y="240" width="770" height="290" as="geometry" />
        </mxCell>
        <mxCell id="4ec97bd9e5d20128-1" value="" style="line;strokeWidth=2;html=1;fillColor=#990000;fontSize=28;fontColor=#004D99;strokeColor=#990000;" parent="1" vertex="1">
          <mxGeometry x="110" y="400" width="710" height="10" as="geometry" />
        </mxCell>
        <mxCell id="4ec97bd9e5d20128-5" value="2004" style="shape=offPageConnector;whiteSpace=wrap;html=1;fillColor=#990000;fontSize=15;fontColor=#FFFFFF;size=0.5093750000000015;verticalAlign=top;strokeColor=none;" parent="1" vertex="1">
          <mxGeometry x="120" y="340" width="50" height="40" as="geometry" />
        </mxCell>
        <mxCell id="4ec97bd9e5d20128-6" value="2009" style="shape=offPageConnector;whiteSpace=wrap;html=1;fillColor=#990000;fontSize=15;fontColor=#FFFFFF;size=0.5093750000000015;verticalAlign=top;strokeColor=none;" parent="1" vertex="1">
          <mxGeometry x="280" y="340" width="50" height="40" as="geometry" />
        </mxCell>
        <mxCell id="4ec97bd9e5d20128-7" value="2008" style="shape=offPageConnector;whiteSpace=wrap;html=1;fillColor=#990000;fontSize=15;fontColor=#FFFFFF;size=0.4178571428571445;flipV=1;verticalAlign=bottom;strokeColor=none;spacingBottom=4;" parent="1" vertex="1">
          <mxGeometry x="200" y="425" width="50" height="35" as="geometry" />
        </mxCell>
        <mxCell id="4ec97bd9e5d20128-8" value="2020" style="shape=offPageConnector;whiteSpace=wrap;html=1;fillColor=#990000;fontSize=15;fontColor=#FFFFFF;size=0.4178571428571445;flipV=1;verticalAlign=bottom;strokeColor=none;spacingBottom=4;" parent="1" vertex="1">
          <mxGeometry x="757" y="425" width="50" height="35" as="geometry" />
        </mxCell>
        <mxCell id="4ec97bd9e5d20128-9" value="" style="ellipse;whiteSpace=wrap;html=1;fillColor=#990000;fontSize=28;fontColor=#004D99;strokeWidth=3;strokeColor=#004D99;" parent="1" vertex="1">
          <mxGeometry x="135" y="395" width="20" height="20" as="geometry" />
        </mxCell>
        <mxCell id="4ec97bd9e5d20128-10" value="" style="ellipse;whiteSpace=wrap;html=1;fillColor=#990000;fontSize=28;fontColor=#004D99;strokeWidth=3;strokeColor=#004D99;" parent="1" vertex="1">
          <mxGeometry x="215" y="395" width="20" height="20" as="geometry" />
        </mxCell>
        <mxCell id="4ec97bd9e5d20128-11" value="" style="ellipse;whiteSpace=wrap;html=1;fillColor=#990000;fontSize=28;fontColor=#004D99;strokeWidth=3;strokeColor=#004D99;" parent="1" vertex="1">
          <mxGeometry x="295" y="395" width="20" height="20" as="geometry" />
        </mxCell>
        <mxCell id="4ec97bd9e5d20128-13" value="" style="ellipse;whiteSpace=wrap;html=1;fillColor=#990000;fontSize=28;fontColor=#004D99;strokeWidth=3;strokeColor=#004D99;" parent="1" vertex="1">
          <mxGeometry x="772" y="395" width="20" height="20" as="geometry" />
        </mxCell>
        <mxCell id="4ec97bd9e5d20128-14" value="&lt;h1&gt;欧洲高补贴&lt;/h1&gt;" style="text;html=1;spacing=5;spacingTop=-20;whiteSpace=wrap;overflow=hidden;strokeColor=none;strokeWidth=3;fillColor=#E6E6E6;fontSize=13;fontColor=#000000;align=center;rounded=1;" parent="1" vertex="1">
          <mxGeometry x="93.5" y="430" width="86.5" height="80" as="geometry" />
        </mxCell>
        <mxCell id="4ec97bd9e5d20128-16" value="&lt;h1&gt;金融危机&lt;/h1&gt;" style="text;html=1;spacing=5;spacingTop=-20;whiteSpace=wrap;overflow=hidden;strokeColor=none;strokeWidth=3;fillColor=#E6E6E6;fontSize=13;fontColor=#000000;align=center;rounded=1;" parent="1" vertex="1">
          <mxGeometry x="176.5" y="300" width="83.5" height="80" as="geometry" />
        </mxCell>
        <mxCell id="4ec97bd9e5d20128-17" value="&lt;h1&gt;行业需求恢复&lt;/h1&gt;" style="text;html=1;spacing=5;spacingTop=-20;whiteSpace=wrap;overflow=hidden;strokeColor=none;strokeWidth=3;fillColor=#E6E6E6;fontSize=13;fontColor=#000000;align=center;rounded=1;" parent="1" vertex="1">
          <mxGeometry x="257" y="430" width="120" height="80" as="geometry" />
        </mxCell>
        <mxCell id="4ec97bd9e5d20128-18" value="&lt;h1&gt;碳中和时代&lt;/h1&gt;" style="text;html=1;spacing=5;spacingTop=-20;whiteSpace=wrap;overflow=hidden;strokeColor=none;strokeWidth=3;fillColor=#E6E6E6;fontSize=13;fontColor=#000000;align=center;rounded=1;" parent="1" vertex="1">
          <mxGeometry x="731" y="300" width="102" height="80" as="geometry" />
        </mxCell>
        <mxCell id="EORnPQ3Ul3AEAmSr3bNs-3" value="2014" style="shape=offPageConnector;whiteSpace=wrap;html=1;fillColor=#990000;fontSize=15;fontColor=#FFFFFF;size=0.5093750000000015;verticalAlign=top;strokeColor=none;" parent="1" vertex="1">
          <mxGeometry x="458.5" y="340" width="50" height="40" as="geometry" />
        </mxCell>
        <mxCell id="EORnPQ3Ul3AEAmSr3bNs-4" value="2012" style="shape=offPageConnector;whiteSpace=wrap;html=1;fillColor=#990000;fontSize=15;fontColor=#FFFFFF;size=0.4178571428571445;flipV=1;verticalAlign=bottom;strokeColor=none;spacingBottom=4;" parent="1" vertex="1">
          <mxGeometry x="378.5" y="425" width="50" height="35" as="geometry" />
        </mxCell>
        <mxCell id="EORnPQ3Ul3AEAmSr3bNs-5" value="" style="ellipse;whiteSpace=wrap;html=1;fillColor=#990000;fontSize=28;fontColor=#004D99;strokeWidth=3;strokeColor=#004D99;" parent="1" vertex="1">
          <mxGeometry x="393.5" y="395" width="20" height="20" as="geometry" />
        </mxCell>
        <mxCell id="EORnPQ3Ul3AEAmSr3bNs-6" value="" style="ellipse;whiteSpace=wrap;html=1;fillColor=#990000;fontSize=28;fontColor=#004D99;strokeWidth=3;strokeColor=#004D99;" parent="1" vertex="1">
          <mxGeometry x="473.5" y="395" width="20" height="20" as="geometry" />
        </mxCell>
        <mxCell id="EORnPQ3Ul3AEAmSr3bNs-7" value="&lt;h1&gt;欧美双反&lt;/h1&gt;" style="text;html=1;spacing=5;spacingTop=-20;whiteSpace=wrap;overflow=hidden;strokeColor=none;strokeWidth=3;fillColor=#E6E6E6;fontSize=13;fontColor=#000000;align=center;rounded=1;" parent="1" vertex="1">
          <mxGeometry x="361.75" y="300" width="83.5" height="80" as="geometry" />
        </mxCell>
        <mxCell id="EORnPQ3Ul3AEAmSr3bNs-8" value="&lt;h1&gt;内需扩大&lt;/h1&gt;" style="text;html=1;spacing=5;spacingTop=-20;whiteSpace=wrap;overflow=hidden;strokeColor=none;strokeWidth=3;fillColor=#E6E6E6;fontSize=13;fontColor=#000000;align=center;rounded=1;" parent="1" vertex="1">
          <mxGeometry x="442.75" y="430" width="81.5" height="80" as="geometry" />
        </mxCell>
        <mxCell id="EORnPQ3Ul3AEAmSr3bNs-10" value="2019" style="shape=offPageConnector;whiteSpace=wrap;html=1;fillColor=#990000;fontSize=15;fontColor=#FFFFFF;size=0.5093750000000015;verticalAlign=top;strokeColor=none;" parent="1" vertex="1">
          <mxGeometry x="645.5" y="340" width="50" height="40" as="geometry" />
        </mxCell>
        <mxCell id="EORnPQ3Ul3AEAmSr3bNs-11" value="2018" style="shape=offPageConnector;whiteSpace=wrap;html=1;fillColor=#990000;fontSize=15;fontColor=#FFFFFF;size=0.4178571428571445;flipV=1;verticalAlign=bottom;strokeColor=none;spacingBottom=4;" parent="1" vertex="1">
          <mxGeometry x="545.5" y="425" width="50" height="35" as="geometry" />
        </mxCell>
        <mxCell id="EORnPQ3Ul3AEAmSr3bNs-12" value="" style="ellipse;whiteSpace=wrap;html=1;fillColor=#990000;fontSize=28;fontColor=#004D99;strokeWidth=3;strokeColor=#004D99;" parent="1" vertex="1">
          <mxGeometry x="560.5" y="395" width="20" height="20" as="geometry" />
        </mxCell>
        <mxCell id="EORnPQ3Ul3AEAmSr3bNs-13" value="" style="ellipse;whiteSpace=wrap;html=1;fillColor=#990000;fontSize=28;fontColor=#004D99;strokeWidth=3;strokeColor=#004D99;" parent="1" vertex="1">
          <mxGeometry x="660.5" y="395" width="20" height="20" as="geometry" />
        </mxCell>
        <mxCell id="EORnPQ3Ul3AEAmSr3bNs-14" value="&lt;h1&gt;国内补贴退坡&lt;/h1&gt;" style="text;html=1;spacing=5;spacingTop=-20;whiteSpace=wrap;overflow=hidden;strokeColor=none;strokeWidth=3;fillColor=#E6E6E6;fontSize=13;fontColor=#000000;align=center;rounded=1;" parent="1" vertex="1">
          <mxGeometry x="512" y="300" width="118.5" height="80" as="geometry" />
        </mxCell>
        <mxCell id="EORnPQ3Ul3AEAmSr3bNs-15" value="&lt;h1&gt;单晶变革，平价时代&lt;/h1&gt;" style="text;html=1;spacing=5;spacingTop=-20;whiteSpace=wrap;overflow=hidden;strokeColor=none;strokeWidth=3;fillColor=#E6E6E6;fontSize=13;fontColor=#000000;align=center;rounded=1;" parent="1" vertex="1">
          <mxGeometry x="600" y="430" width="150" height="80" as="geometry" />
        </mxCell>
        <mxCell id="EORnPQ3Ul3AEAmSr3bNs-18" value="&lt;b&gt;&lt;font style=&quot;font-size: 18px;&quot;&gt;光伏行业发展路径&lt;/font&gt;&lt;/b&gt;" style="text;html=1;strokeColor=none;fillColor=none;align=center;verticalAlign=middle;whiteSpace=wrap;rounded=0;fontColor=#FFB570;" parent="1" vertex="1">
          <mxGeometry x="345" y="250" width="240" height="30" as="geometry" />
        </mxCell>
      </root>
    </mxGraphModel>
  </diagram>
</mxfile>
